{
	"patcher" : 	{
		"fileversion" : 1,
		"appversion" : 		{
			"major" : 8,
			"minor" : 1,
			"revision" : 5,
			"architecture" : "x64",
			"modernui" : 1
		}
,
		"classnamespace" : "box",
		"rect" : [ 1057.0, 111.0, 1453.0, 1136.0 ],
		"bglocked" : 0,
		"openinpresentation" : 0,
		"default_fontsize" : 12.0,
		"default_fontface" : 0,
		"default_fontname" : "Arial",
		"gridonopen" : 1,
		"gridsize" : [ 15.0, 15.0 ],
		"gridsnaponopen" : 1,
		"objectsnaponopen" : 1,
		"statusbarvisible" : 2,
		"toolbarvisible" : 1,
		"lefttoolbarpinned" : 0,
		"toptoolbarpinned" : 0,
		"righttoolbarpinned" : 0,
		"bottomtoolbarpinned" : 0,
		"toolbars_unpinned_last_save" : 0,
		"tallnewobj" : 0,
		"boxanimatetime" : 200,
		"enablehscroll" : 1,
		"enablevscroll" : 1,
		"devicewidth" : 0.0,
		"description" : "",
		"digest" : "",
		"tags" : "",
		"style" : "",
		"subpatcher_template" : "",
		"assistshowspatchername" : 0,
		"boxes" : [ 			{
				"box" : 				{
					"id" : "obj-41",
					"maxclass" : "message",
					"numinlets" : 2,
					"numoutlets" : 1,
					"outlettype" : [ "" ],
					"patching_rect" : [ 509.5, 415.0, 31.0, 22.0 ],
					"text" : "stop"
				}

			}
, 			{
				"box" : 				{
					"id" : "obj-40",
					"maxclass" : "message",
					"numinlets" : 2,
					"numoutlets" : 1,
					"outlettype" : [ "" ],
					"patching_rect" : [ 461.5, 415.0, 32.0, 22.0 ],
					"text" : "start"
				}

			}
, 			{
				"box" : 				{
					"id" : "obj-38",
					"maxclass" : "meter~",
					"numinlets" : 1,
					"numoutlets" : 1,
					"outlettype" : [ "float" ],
					"patching_rect" : [ 125.0, 724.5, 80.0, 13.0 ]
				}

			}
, 			{
				"box" : 				{
					"id" : "obj-37",
					"maxclass" : "meter~",
					"numinlets" : 1,
					"numoutlets" : 1,
					"outlettype" : [ "float" ],
					"patching_rect" : [ 125.0, 692.5, 80.0, 13.0 ]
				}

			}
, 			{
				"box" : 				{
					"id" : "obj-36",
					"maxclass" : "meter~",
					"numinlets" : 1,
					"numoutlets" : 1,
					"outlettype" : [ "float" ],
					"patching_rect" : [ 125.0, 661.5, 80.0, 13.0 ]
				}

			}
, 			{
				"box" : 				{
					"id" : "obj-35",
					"maxclass" : "meter~",
					"numinlets" : 1,
					"numoutlets" : 1,
					"outlettype" : [ "float" ],
					"patching_rect" : [ 125.0, 630.5, 80.0, 13.0 ]
				}

			}
, 			{
				"box" : 				{
					"id" : "obj-28",
					"maxclass" : "newobj",
					"numinlets" : 4,
					"numoutlets" : 0,
					"patching_rect" : [ 334.0, 717.0, 75.0, 22.0 ],
					"text" : "dac~ 3 4 5 6"
				}

			}
, 			{
				"box" : 				{
					"id" : "obj-25",
					"maxclass" : "message",
					"numinlets" : 2,
					"numoutlets" : 1,
					"outlettype" : [ "" ],
					"patching_rect" : [ 351.5, 229.0, 35.0, 22.0 ],
					"text" : "open"
				}

			}
, 			{
				"box" : 				{
					"id" : "obj-20",
					"maxclass" : "newobj",
					"numinlets" : 1,
					"numoutlets" : 1,
					"outlettype" : [ "bang" ],
					"patching_rect" : [ 351.5, 178.0, 58.0, 22.0 ],
					"text" : "loadbang"
				}

			}
, 			{
				"box" : 				{
					"id" : "obj-19",
					"maxclass" : "newobj",
					"numinlets" : 2,
					"numoutlets" : 5,
					"outlettype" : [ "signal", "signal", "signal", "signal", "bang" ],
					"patching_rect" : [ 313.5, 287.0, 61.0, 22.0 ],
					"saved_object_attributes" : 					{
						"basictuning" : 440,
						"followglobaltempo" : 0,
						"formantcorrection" : 0,
						"mode" : "basic",
						"originallength" : [ 28800.0, "ticks" ],
						"originaltempo" : 120.0,
						"pitchcorrection" : 0,
						"quality" : "basic",
						"timestretch" : [ 0 ]
					}
,
					"text" : "sfplay~ 4"
				}

			}
, 			{
				"box" : 				{
					"id" : "obj-18",
					"maxclass" : "message",
					"numinlets" : 2,
					"numoutlets" : 1,
					"outlettype" : [ "" ],
					"patching_rect" : [ 304.0, 178.0, 29.5, 22.0 ],
					"text" : "1"
				}

			}
, 			{
				"box" : 				{
					"id" : "obj-17",
					"maxclass" : "message",
					"numinlets" : 2,
					"numoutlets" : 1,
					"outlettype" : [ "" ],
					"patching_rect" : [ 259.0, 178.0, 29.5, 22.0 ],
					"text" : "0"
				}

			}
, 			{
				"box" : 				{
					"id" : "obj-15",
					"maxclass" : "gain~",
					"multichannelvariant" : 0,
					"numinlets" : 1,
					"numoutlets" : 2,
					"outlettype" : [ "signal", "" ],
					"parameter_enable" : 0,
					"patching_rect" : [ 390.0, 410.0, 22.0, 140.0 ]
				}

			}
, 			{
				"box" : 				{
					"id" : "obj-14",
					"maxclass" : "gain~",
					"multichannelvariant" : 0,
					"numinlets" : 1,
					"numoutlets" : 2,
					"outlettype" : [ "signal", "" ],
					"parameter_enable" : 0,
					"patching_rect" : [ 346.0, 410.0, 22.0, 140.0 ]
				}

			}
, 			{
				"box" : 				{
					"id" : "obj-13",
					"maxclass" : "gain~",
					"multichannelvariant" : 0,
					"numinlets" : 1,
					"numoutlets" : 2,
					"outlettype" : [ "signal", "" ],
					"parameter_enable" : 0,
					"patching_rect" : [ 299.0, 410.0, 22.0, 140.0 ]
				}

			}
, 			{
				"box" : 				{
					"id" : "obj-12",
					"maxclass" : "gain~",
					"multichannelvariant" : 0,
					"numinlets" : 1,
					"numoutlets" : 2,
					"outlettype" : [ "signal", "" ],
					"parameter_enable" : 0,
					"patching_rect" : [ 253.0, 410.0, 22.0, 140.0 ]
				}

			}
, 			{
				"box" : 				{
					"id" : "obj-11",
					"maxclass" : "number",
					"numinlets" : 1,
					"numoutlets" : 2,
					"outlettype" : [ "", "bang" ],
					"parameter_enable" : 0,
					"patching_rect" : [ 102.75, 410.0, 50.0, 22.0 ]
				}

			}
, 			{
				"box" : 				{
					"id" : "obj-9",
					"maxclass" : "toggle",
					"numinlets" : 1,
					"numoutlets" : 1,
					"outlettype" : [ "int" ],
					"parameter_enable" : 0,
					"patching_rect" : [ 208.0, 178.0, 24.0, 24.0 ]
				}

			}
, 			{
				"box" : 				{
					"id" : "obj-7",
					"maxclass" : "message",
					"numinlets" : 2,
					"numoutlets" : 1,
					"outlettype" : [ "" ],
					"patching_rect" : [ 3.0, 173.0, 29.5, 22.0 ],
					"text" : "0"
				}

			}
, 			{
				"box" : 				{
					"id" : "obj-6",
					"maxclass" : "message",
					"numinlets" : 2,
					"numoutlets" : 1,
					"outlettype" : [ "" ],
					"patching_rect" : [ 51.0, 149.0, 29.5, 22.0 ],
					"text" : "128"
				}

			}
, 			{
				"box" : 				{
					"id" : "obj-5",
					"maxclass" : "gain~",
					"multichannelvariant" : 0,
					"numinlets" : 1,
					"numoutlets" : 2,
					"outlettype" : [ "signal", "" ],
					"parameter_enable" : 0,
					"patching_rect" : [ 78.0, 218.0, 22.0, 140.0 ]
				}

			}
, 			{
				"box" : 				{
					"id" : "obj-3",
					"maxclass" : "newobj",
					"numinlets" : 1,
					"numoutlets" : 1,
					"outlettype" : [ "bang" ],
					"patching_rect" : [ 95.0, 91.0, 58.0, 22.0 ],
					"text" : "loadbang"
				}

			}
, 			{
				"box" : 				{
					"id" : "obj-2",
					"maxclass" : "message",
					"numinlets" : 2,
					"numoutlets" : 1,
					"outlettype" : [ "" ],
					"patching_rect" : [ 113.0, 149.0, 29.5, 22.0 ],
					"text" : "110"
				}

			}
 ],
		"lines" : [ 			{
				"patchline" : 				{
					"destination" : [ "obj-28", 0 ],
					"order" : 0,
					"source" : [ "obj-12", 0 ]
				}

			}
, 			{
				"patchline" : 				{
					"destination" : [ "obj-35", 0 ],
					"order" : 1,
					"source" : [ "obj-12", 0 ]
				}

			}
, 			{
				"patchline" : 				{
					"destination" : [ "obj-28", 1 ],
					"order" : 0,
					"source" : [ "obj-13", 0 ]
				}

			}
, 			{
				"patchline" : 				{
					"destination" : [ "obj-36", 0 ],
					"order" : 1,
					"source" : [ "obj-13", 0 ]
				}

			}
, 			{
				"patchline" : 				{
					"destination" : [ "obj-28", 2 ],
					"order" : 0,
					"source" : [ "obj-14", 0 ]
				}

			}
, 			{
				"patchline" : 				{
					"destination" : [ "obj-37", 0 ],
					"order" : 1,
					"source" : [ "obj-14", 0 ]
				}

			}
, 			{
				"patchline" : 				{
					"destination" : [ "obj-28", 3 ],
					"order" : 0,
					"source" : [ "obj-15", 0 ]
				}

			}
, 			{
				"patchline" : 				{
					"destination" : [ "obj-38", 0 ],
					"order" : 1,
					"source" : [ "obj-15", 0 ]
				}

			}
, 			{
				"patchline" : 				{
					"destination" : [ "obj-19", 0 ],
					"source" : [ "obj-17", 0 ]
				}

			}
, 			{
				"patchline" : 				{
					"destination" : [ "obj-19", 0 ],
					"source" : [ "obj-18", 0 ]
				}

			}
, 			{
				"patchline" : 				{
					"destination" : [ "obj-12", 0 ],
					"source" : [ "obj-19", 0 ]
				}

			}
, 			{
				"patchline" : 				{
					"destination" : [ "obj-13", 0 ],
					"source" : [ "obj-19", 1 ]
				}

			}
, 			{
				"patchline" : 				{
					"destination" : [ "obj-14", 0 ],
					"source" : [ "obj-19", 2 ]
				}

			}
, 			{
				"patchline" : 				{
					"destination" : [ "obj-15", 0 ],
					"source" : [ "obj-19", 3 ]
				}

			}
, 			{
				"patchline" : 				{
					"destination" : [ "obj-5", 0 ],
					"source" : [ "obj-2", 0 ]
				}

			}
, 			{
				"patchline" : 				{
					"destination" : [ "obj-25", 0 ],
					"source" : [ "obj-20", 0 ]
				}

			}
, 			{
				"patchline" : 				{
					"destination" : [ "obj-19", 0 ],
					"source" : [ "obj-25", 0 ]
				}

			}
, 			{
				"patchline" : 				{
					"destination" : [ "obj-2", 0 ],
					"source" : [ "obj-3", 0 ]
				}

			}
, 			{
				"patchline" : 				{
					"destination" : [ "obj-28", 0 ],
					"source" : [ "obj-40", 0 ]
				}

			}
, 			{
				"patchline" : 				{
					"destination" : [ "obj-28", 0 ],
					"source" : [ "obj-41", 0 ]
				}

			}
, 			{
				"patchline" : 				{
					"destination" : [ "obj-11", 0 ],
					"order" : 4,
					"source" : [ "obj-5", 1 ]
				}

			}
, 			{
				"patchline" : 				{
					"destination" : [ "obj-12", 0 ],
					"order" : 3,
					"source" : [ "obj-5", 1 ]
				}

			}
, 			{
				"patchline" : 				{
					"destination" : [ "obj-13", 0 ],
					"order" : 2,
					"source" : [ "obj-5", 1 ]
				}

			}
, 			{
				"patchline" : 				{
					"destination" : [ "obj-14", 0 ],
					"order" : 1,
					"source" : [ "obj-5", 1 ]
				}

			}
, 			{
				"patchline" : 				{
					"destination" : [ "obj-15", 0 ],
					"order" : 0,
					"source" : [ "obj-5", 1 ]
				}

			}
, 			{
				"patchline" : 				{
					"destination" : [ "obj-5", 0 ],
					"source" : [ "obj-6", 0 ]
				}

			}
, 			{
				"patchline" : 				{
					"destination" : [ "obj-5", 0 ],
					"source" : [ "obj-7", 0 ]
				}

			}
, 			{
				"patchline" : 				{
					"destination" : [ "obj-19", 0 ],
					"source" : [ "obj-9", 0 ]
				}

			}
 ],
		"parameters" : 		{
			"parameterbanks" : 			{

			}
,
			"inherited_shortname" : 1
		}
,
		"dependency_cache" : [  ],
		"autosave" : 0
	}

}
